<svg xmlns="http://www.w3.org/2000/svg" viewBox="0 0 64 64" style="enable-background:new 0 0 64 64" xml:space="preserve"><path style="fill:#aad15d" d="M61.651 34.332c-5.422 11.14-19.194 14.467-26.046 13.401 6.769-4.825 16.245-9.204 16.245-9.204s-9.227 2.405-17.046 7.911c.923-2.322 3.343-6.489 7.548-9.544 5.406-3.933 11.895-4.795 19.299-2.564z"/><path style="fill:#90b74b" d="M33.525 42.613c.038 1.308-.098 2.337-.295 3.131a.1.1 0 0 0-.015.045C24.851 28.13 9.242 21.815 8.758 21.626c.537.318 14.256 8.553 22.34 25.781-.287.008 0 0-.348-.015C24.964 47.12 10.951 43.407 0 16.113c9.06-.401 18.234 2.76 24.79 8.599 5.529 4.923 8.546 11.109 8.735 17.901z"/></svg>